HIERARCHY
ROOT Hips
{
	OFFSET -3.958830 18.904000 13.208200
	CHANNELS 6 Xposition Yposition Zposition Zrotation Yrotation Xrotation 
	JOINT LHipJoint
	{
		OFFSET 0.000000 0.000000 0.000000
		CHANNELS 3 Zrotation Yrotation Xrotation
		JOINT LeftUpLeg
		{
			OFFSET 1.800000 -1.400000 0.085000
			CHANNELS 3 Zrotation Yrotation Xrotation
			JOINT LeftLeg
			{
				OFFSET 2.215000 -6.000000 0.000000
				CHANNELS 3 Zrotation Yrotation Xrotation
				JOINT LeftFoot
				{
					OFFSET 2.500000 -6.900000 0.000000
					CHANNELS 3 Zrotation Yrotation Xrotation
					JOINT LeftToeBase
					{
						OFFSET 0.200000 -0.500000 1.950000
						CHANNELS 3 Zrotation Yrotation Xrotation
						End Site
						{
							OFFSET 0.000000 0.000000 0.000000
						}
					}
				}
			}
		}
	}
	JOINT RHipJoint
	{
		OFFSET 0.000000 0.000000 0.000000
		CHANNELS 3 Zrotation Yrotation Xrotation
		JOINT RightUpLeg
		{
			OFFSET -1.800000 -1.400000 0.085000
			CHANNELS 3 Zrotation Yrotation Xrotation
			JOINT RightLeg
			{
				OFFSET -2.215000 -6.000000 0.000000
				CHANNELS 3 Zrotation Yrotation Xrotation
				JOINT RightFoot
				{
					OFFSET -2.500000 -6.900000 0.000000
					CHANNELS 3 Zrotation Yrotation Xrotation
					JOINT RightToeBase
					{
						OFFSET -0.200000 -0.500000 1.950000
						CHANNELS 3 Zrotation Yrotation Xrotation
						End Site
						{
							OFFSET 0.000000 0.000000 0.000000
						}
					}
				}
			}
		}
	}
	JOINT LowerBack
	{
		OFFSET 0.000000 0.000000 0.000000
		CHANNELS 3 Zrotation Yrotation Xrotation
		JOINT Spine
		{
			OFFSET -0.087000 1.940000 -0.288900
			CHANNELS 3 Zrotation Yrotation Xrotation
			JOINT Spine1
			{
				OFFSET 0.000000 1.950000 0.060000
				CHANNELS 3 Zrotation Yrotation Xrotation
				JOINT Neck
				{
					OFFSET 0.000000 0.000000 0.000000
					CHANNELS 3 Zrotation Yrotation Xrotation
					JOINT Neck1
					{
						OFFSET 0.000000 1.600000 0.340000
						CHANNELS 3 Zrotation Yrotation Xrotation
						JOINT Head
						{
							OFFSET 0.000000 1.667000 -0.240000
							CHANNELS 3 Zrotation Yrotation Xrotation
							End Site
							{
								OFFSET 0.000000 0.000000 0.000000
							}
						}
					}
				}
				JOINT LeftShoulder
				{
					OFFSET 0.000000 0.000000 0.000000
					CHANNELS 3 Zrotation Yrotation Xrotation
					JOINT LeftArm
					{
						OFFSET 2.700000 1.550000 -0.730000
						CHANNELS 3 Zrotation Yrotation Xrotation
						JOINT LeftForeArm
						{
							OFFSET 5.450000 0.000000 0.000000
							CHANNELS 3 Zrotation Yrotation Xrotation
							JOINT LeftHand
							{
								OFFSET 3.450000 0.000000 0.000000
								CHANNELS 3 Zrotation Yrotation Xrotation
								JOINT LeftHandIndex1
								{
									OFFSET 0.750000 0.000000 0.000000
									CHANNELS 3 Zrotation Yrotation Xrotation
									End Site
									{
										OFFSET 0.000000 0.000000 0.000000
									}
								}
							}
						}
					}
				}
				JOINT RightShoulder
				{
					OFFSET 0.000000 0.000000 0.000000
					CHANNELS 3 Zrotation Yrotation Xrotation
					JOINT RightArm
					{
						OFFSET -2.700000 1.550000 -0.730000
						CHANNELS 3 Zrotation Yrotation Xrotation
						JOINT RightForeArm
						{
							OFFSET -5.450000 0.000000 0.000000
							CHANNELS 3 Zrotation Yrotation Xrotation
							JOINT RightHand
							{
								OFFSET -3.450000 0.000000 0.000000
								CHANNELS 3 Zrotation Yrotation Xrotation
								JOINT RightHandIndex1
								{
									OFFSET -0.750000 0.000000 0.000000
									CHANNELS 3 Zrotation Yrotation Xrotation
									End Site
									{
										OFFSET 0.000000 0.000000 0.000000
									}
								}
							}
						}
					}
				}
			}
		}
	}
}
MOTION
Frames: 13
Frame Time: 0.016667
2.147830 16.970830 -1.938100 12.076959 19.876342 7.328610 -16.265884 14.327703 3.918780 1.162086 -7.141158 1.899242 -22.482086 12.449140 23.568835 0.717009 8.606015 2.161860 0.345720 -0.156870 0.008290 17.447865 -7.926264 3.114719 10.485623 2.584879 -33.197727 6.077851 -2.378606 9.334233 0.378588 -1.389088 4.286312 0.032060 0.801340 0.124710 -0.957894 -8.795741 -7.931298 -16.974335 -13.060396 14.350953 -6.307727 -12.722498 4.904792 -0.086903 -6.841494 -10.440991 -18.541852 3.557353 25.871730 10.086400 -8.532780 4.063850 -0.925599 -0.124534 5.306421 -62.287248 -32.225744 10.702697 30.118240 -54.838750 -18.324047 -3.609731 2.887422 0.270380 0.371980 -0.506220 0.483680 3.279333 -1.403891 3.702252 50.090345 -13.740078 -13.993989 -8.717841 28.579793 -1.871821 1.894689 -1.748139 -0.337620 0.347630 -0.048110 -0.031500 
2.171340 16.900330 -1.805940 12.441422 19.007771 6.242156 -16.242556 14.132378 4.110780 3.178605 -9.533755 0.283711 -25.603127 14.471513 28.188472 0.984635 9.529037 1.809215 0.373790 -0.104850 0.042510 17.447862 -7.982708 3.052670 10.230425 2.535631 -30.567664 5.884112 -2.416390 9.205927 0.290381 -1.406768 4.258230 0.010180 0.718310 0.143440 -0.962566 -8.539397 -8.108462 -19.635342 -11.896069 16.783555 -4.924086 -12.154384 3.708719 -0.255931 -7.120421 -10.512222 -20.127968 4.221899 27.414182 11.156210 -8.427390 1.950550 -0.426501 0.266823 5.006139 -62.166940 -31.164231 9.607679 25.207053 -51.259637 -14.825252 -3.568540 2.952809 0.324670 0.294890 -0.403230 0.468480 3.354069 -1.279864 3.855030 50.460263 -13.626481 -14.204184 -9.838876 28.595491 -1.886186 1.950597 -1.681140 -0.276890 0.330550 -0.067630 -0.021660 
2.181270 16.831220 -1.697530 12.788591 18.623692 4.891775 -16.212964 13.808430 4.414754 5.924921 -12.786559 -2.664575 -29.299152 17.556377 34.471117 1.321341 10.844791 1.354743 0.369960 -0.104680 0.075820 17.464648 -8.009169 2.957593 9.733426 2.467644 -27.818872 5.780717 -2.477837 8.806712 0.215872 -1.452840 4.241866 -0.030510 0.650930 0.140190 -0.993356 -8.178255 -8.345642 -22.954631 -10.205985 20.041400 -2.471900 -11.197994 2.882919 -0.375875 -7.010202 -10.834260 -21.016518 4.241368 29.692490 11.309690 -8.317570 0.745300 -0.007871 -0.164059 4.889316 -62.095725 -30.300173 8.036040 22.245848 -48.882931 -13.035179 -3.522632 2.942522 0.395070 0.232720 -0.324760 0.446210 3.233423 -0.363578 4.509344 51.381364 -13.694038 -14.763197 -10.722877 28.812201 -1.967741 1.985926 -1.601886 -0.257550 0.328640 -0.078100 -0.033490 
2.219010 16.739520 -1.615600 10.863862 18.203682 3.404419 -16.155076 13.380363 4.688789 10.468632 -15.339604 -7.119894 -31.942415 20.852472 40.210092 1.642717 12.012862 0.940097 0.403530 -0.055160 0.119190 17.541263 -7.902453 2.991378 11.234260 3.080520 -26.188778 5.852332 -2.663002 9.683054 0.148835 -1.520463 4.217554 -0.047640 0.564360 0.140720 -1.132590 -7.751493 -8.600832 -22.039372 -9.229467 22.941867 -1.114344 -10.165413 2.769552 -0.705784 -7.356215 -11.178008 -22.671006 4.839542 31.649581 11.212420 -7.831580 0.251970 -0.328737 -0.375387 4.655664 -61.855936 -29.402416 6.229394 19.221800 -49.077093 -11.951069 -3.460699 2.978827 0.416330 0.175100 -0.255900 0.435970 4.089791 0.837418 5.205976 51.771295 -13.507903 -15.358301 -14.799357 29.974119 -2.700788 2.025780 -1.610009 -0.200500 0.291030 -0.115270 -0.035740 
2.233700 16.680330 -1.553520 9.399988 17.422542 0.396313 -16.066916 13.027956 4.927149 14.115867 -16.883224 -10.035115 -32.294296 23.989107 46.601096 1.851784 13.123611 0.538500 0.428610 -0.067050 0.217920 17.635161 -7.959943 2.983168 12.072733 3.253341 -23.386622 5.891041 -3.081159 11.131125 0.039398 -1.689929 4.129226 -0.081120 0.432630 0.133210 -1.366334 -7.126220 -8.838347 -22.298144 -7.023317 28.049283 0.070424 -8.289872 3.076052 -0.414255 -7.199929 -12.338538 -24.132355 5.408572 35.445916 10.955690 -7.041360 -1.147210 -0.715194 -2.732055 4.919244 -60.070812 -27.701957 2.139836 18.529355 -52.406203 -13.100768 -3.353103 2.937242 0.549540 0.079620 -0.163230 0.376910 3.712462 3.914844 6.714763 54.566295 -13.737999 -17.074607 -16.198832 29.870863 -3.123878 2.036646 -1.524843 -0.200720 0.260670 -0.125030 -0.108530 
2.245010 16.607210 -1.479920 7.103528 15.439120 -1.975566 -15.973087 12.555073 5.152990 18.327127 -17.478705 -13.749864 -31.446607 27.337728 53.326749 2.049655 14.196577 0.149475 0.462160 -0.058790 0.320810 17.765275 -7.970647 3.052316 13.730824 3.857301 -21.675492 6.503932 -3.732269 13.750674 -0.072493 -1.931600 4.008920 -0.094380 0.295770 0.107380 -1.669094 -6.283393 -9.065525 -20.581685 -5.357405 32.079637 0.243582 -6.171607 2.745599 -0.287194 -7.093179 -13.105339 -25.384189 6.907452 39.723505 11.284630 -5.699500 -2.542290 -1.667771 -3.679574 5.060224 -58.447399 -24.428344 -1.968592 16.839415 -58.580222 -14.356061 -3.253553 2.908827 0.661210 -0.017710 -0.082380 0.311090 4.278326 5.798763 7.631716 56.189300 -13.502667 -18.282623 -18.337551 30.573711 -3.741672 2.039195 -1.453752 -0.200310 0.233570 -0.136590 -0.183260 
2.243000 16.519020 -1.399890 5.790189 12.017209 -3.710582 -15.871611 12.045994 5.370861 21.104206 -17.304736 -17.577097 -28.730743 30.587680 61.306044 2.325768 15.335062 -0.176681 0.484450 -0.051860 0.380380 17.910902 -8.065682 3.099958 14.874375 4.362131 -20.307724 7.489776 -4.627960 17.094132 -0.215403 -2.327588 3.849271 -0.120520 0.222630 0.110080 -2.029144 -5.234812 -9.241099 -19.837051 -3.437902 35.695050 0.245993 -3.935693 0.490440 -0.423945 -7.223989 -13.342171 -26.217082 8.479690 42.717728 12.382680 -4.574720 -4.118390 -1.842013 -2.132011 5.172503 -58.296789 -20.279798 -4.723808 15.006599 -65.549450 -15.396773 -3.185340 2.916587 0.748160 -0.086060 -0.007980 0.287310 4.796807 5.335102 7.644235 56.784150 -13.478283 -19.482668 -18.988126 34.584796 -4.359679 1.990452 -1.393652 -0.188750 0.221520 -0.151950 -0.214030 
2.241420 16.419940 -1.315750 4.409389 7.873192 -4.554369 -15.765143 11.518887 5.545063 23.742825 -16.373697 -21.941362 -23.535288 32.798747 70.380207 2.586506 16.444981 -0.449942 0.437340 -0.093940 0.366770 18.077145 -8.140232 3.207599 16.415605 5.178865 -19.847272 8.326919 -5.536703 20.816925 -0.318639 -2.792576 3.709820 -0.159410 0.220250 0.071460 -2.428714 -4.116364 -9.422605 -18.052606 -2.086583 37.977426 -0.776565 -1.964438 -2.586547 -0.665297 -7.307791 -13.289906 -26.829848 10.489693 45.729681 13.370560 -3.355640 -3.574320 -2.102469 0.494611 5.027589 -57.340934 -15.940230 -6.120108 13.733816 -71.199579 -15.771364 -3.173368 2.897487 0.785880 -0.104130 0.003460 0.265630 5.573614 3.528065 7.213045 56.655774 -13.681579 -20.445418 -18.223024 40.113958 -4.828589 1.918868 -1.308859 -0.215630 0.250160 -0.134420 -0.227160 
2.242560 16.320580 -1.256280 3.937132 4.328757 -4.737847 -15.700870 11.130207 5.682608 24.971147 -15.324768 -26.730348 -17.037245 33.233412 79.461256 2.842009 17.323629 -0.633137 0.441490 -0.099320 0.387930 18.198947 -8.195723 3.293038 17.428732 6.006003 -20.356269 8.098927 -6.188487 25.076408 -0.440791 -3.265711 3.534361 -0.192640 0.181920 0.080940 -2.708166 -3.268439 -9.548631 -17.506238 -0.596191 40.052244 -0.908612 -0.375685 -5.928039 -1.165868 -7.616689 -12.687008 -27.261268 11.347931 47.007600 13.771730 -2.834310 -3.742270 -1.581063 4.510421 4.754104 -57.424863 -12.432429 -6.046352 11.558120 -76.216022 -14.916742 -3.120992 3.017895 0.801530 -0.137280 0.036610 0.266030 6.019592 0.494504 6.261208 56.093532 -13.635295 -20.953838 -17.173633 46.504476 -5.117930 1.883295 -1.315846 -0.188720 0.212630 -0.161460 -0.225690 
2.239350 16.241990 -1.216940 3.452976 0.569396 -4.246423 -15.682792 10.914826 5.675343 25.088974 -13.736344 -32.357053 -8.618010 30.538040 87.717571 2.906376 17.647550 -0.695408 0.423490 -0.137250 0.386530 18.279334 -8.188328 3.450040 18.482720 7.174300 -21.378485 8.144866 -6.759905 29.065883 -0.540840 -3.775090 3.352216 -0.222440 0.170230 0.085810 -2.868791 -2.706587 -9.629664 -17.451253 1.153693 40.709510 -0.552097 1.292093 -8.303768 -1.870000 -7.678341 -11.975629 -26.656179 12.004774 47.985222 13.860420 -2.188970 -2.792160 -1.549756 7.662698 4.561404 -56.978209 -9.215777 -6.029899 14.808293 -80.250262 -17.724960 -3.079656 3.072249 0.802660 -0.142660 0.031930 0.262480 7.214606 -1.760707 5.334365 54.852732 -12.868218 -20.920018 -16.973524 52.522138 -5.847951 1.849033 -1.333712 -0.187050 0.174950 -0.167160 -0.232450 
2.231510 16.192580 -1.196830 2.972817 -3.087685 -4.781981 -15.706792 10.797031 5.678974 24.656913 -12.409323 -37.674408 -0.029657 26.190851 95.583432 2.901044 17.559503 -0.673366 0.425500 -0.143610 0.421520 18.312297 -8.173269 3.538767 19.266214 7.813551 -20.868898 8.341916 -7.359500 32.139338 -0.674178 -4.281441 3.169579 -0.248160 0.115380 0.107380 -2.910862 -2.362920 -9.686197 -18.268980 3.471359 42.023823 0.406146 3.358516 -9.522120 -2.216691 -7.266086 -11.586721 -25.017714 11.953614 50.257889 12.217010 -0.609390 -2.750110 -1.255127 9.601087 4.763200 -56.673622 -5.991017 -6.967423 26.346681 -84.505094 -28.245811 -2.998623 2.970900 0.818200 -0.156400 0.065740 0.246160 7.390894 -2.770018 4.767395 54.544271 -11.152856 -21.001661 -17.654053 56.512381 -6.960487 1.838465 -1.328305 -0.163870 0.121010 -0.185500 -0.252770 
2.203400 16.176640 -1.174430 3.882095 -4.582435 -5.590581 -15.720993 10.946020 5.577575 20.686126 -12.494821 -42.201809 8.717702 17.541372 99.151748 2.681451 16.600958 -0.466139 0.428820 -0.131720 0.436720 18.291858 -8.351472 3.469219 17.737346 7.555252 -20.174349 9.879103 -8.205253 33.121771 -0.759095 -4.623183 3.052810 -0.261920 0.069140 0.134340 -2.867507 -2.272924 -9.575414 -20.910695 5.953419 43.146246 2.024230 4.465892 -9.326429 -2.771646 -6.625322 -11.227499 -22.932005 11.409756 51.875389 10.650850 0.748500 -3.872950 0.184145 11.087302 5.260395 -56.827000 -3.783604 -8.658186 45.387433 -87.032923 -45.301705 -2.888296 2.472672 0.829810 -0.162140 0.101060 0.233870 6.880408 -3.928208 4.114347 56.176927 -8.589445 -21.532095 -18.319055 61.028054 -8.611474 1.811266 -1.319465 -0.136580 0.078640 -0.194750 -0.264300 
2.187550 16.169900 -1.183630 4.365805 -7.397500 -6.136950 -15.766993 10.961917 5.645176 17.090063 -12.230003 -46.786672 16.245825 9.178698 99.965932 2.596279 15.890460 -0.264214 0.433720 -0.131150 0.487150 18.266483 -8.414980 3.366270 16.529345 7.229911 -18.756540 11.410937 -8.668460 32.574609 -0.802370 -4.750143 3.015172 -0.290300 0.030000 0.157980 -2.787472 -2.187515 -9.523908 -22.702530 8.674113 43.878016 3.427349 6.013512 -9.291865 -2.987420 -5.993268 -10.596286 -20.304964 10.320776 52.866875 7.410590 2.376780 -4.154790 1.146873 13.017170 5.059235 -56.561108 -1.597021 -9.791846 72.551909 -88.752072 -68.352502 -2.692447 0.020273 0.813060 -0.162400 0.133690 0.232700 6.071120 -5.103703 3.725425 56.985800 -5.709049 -21.328351 -18.867816 66.590887 -10.736152 1.820002 -1.331708 -0.102980 0.041620 -0.232490 -0.266900 
